<?xml version="1.0" encoding="UTF-8"?>
<svg width="52px" height="52px" viewBox="0 0 52 52" version="1.1" xmlns="http://www.w3.org/2000/svg" xmlns:xlink="http://www.w3.org/1999/xlink">
    <!-- Generator: Sketch 47.1 (45422) - http://www.bohemiancoding.com/sketch -->
    <title>dashSelected</title>
    <desc>Created with Sketch.</desc>
    <defs></defs>
    <g id="Page-1" stroke="none" stroke-width="1" fill="none" fill-rule="evenodd">
        <g id="main" transform="translate(-35.000000, -112.000000)">
            <g id="dashSelected" transform="translate(35.000000, 112.000000)">
                <circle id="Oval-2-Copy-6" fill="#202089" cx="26" cy="26" r="26"></circle>
                <g id="dash" transform="translate(9.000000, 16.000000)" fill="#FFFFFF">
                    <path d="M23.9357037,16.9416296 C25.7031111,15.1423704 26.7964444,12.6801481 26.7964444,9.96533333 C26.7964444,7.25051852 25.7031111,4.7882963 23.9357037,2.98903704 C27.2060741,4.4282963 30.0297778,6.8357037 31.9438519,9.96533333 C30.0297778,13.094963 27.2060741,15.5023704 23.9357037,16.9416296 L23.9357037,16.9416296 Z M1.71792593,9.96533333 C3.63274074,6.8357037 6.45644444,4.4282963 9.72681481,2.98903704 C7.96014815,4.7882963 6.86533333,7.25051852 6.86533333,9.96533333 C6.86533333,12.6801481 7.96014815,15.1423704 9.72681481,16.9416296 C6.45644444,15.5023704 3.63274074,13.094963 1.71792593,9.96533333 L1.71792593,9.96533333 Z M25.314963,9.96533333 C25.314963,14.6431111 21.509037,18.4497778 16.8305185,18.4497778 C12.1527407,18.4497778 8.34681481,14.6431111 8.34681481,9.96533333 C8.34681481,5.28755556 12.1527407,1.48162963 16.8305185,1.48162963 C21.509037,1.48162963 25.314963,5.28755556 25.314963,9.96533333 L25.314963,9.96533333 Z M33.4468148,9.59422222 C30.0223704,3.67644444 23.6557037,0.000148148148 16.8305185,0.000148148148 C10.0068148,0.000148148148 3.64014815,3.67644444 0.214962963,9.59422222 L0.000148148148,9.96533333 L0.214962963,10.3364444 C3.64014815,16.2542222 10.0068148,19.9312593 16.8305185,19.9312593 C23.654963,19.9312593 30.0223704,16.2542222 33.4468148,10.3364444 L33.6616296,9.96533333 L33.4468148,9.59422222 Z" id="Fill-1"></path>
                    <path d="M16.9768148,13.1753333 C18.782,13.1753333 20.244963,11.7123704 20.244963,9.90718519 C20.244963,8.10274074 18.782,6.63977778 16.9768148,6.63977778 C15.1723704,6.63977778 13.7094074,8.10274074 13.7094074,9.90718519 C13.7094074,11.7123704 15.1723704,13.1753333 16.9768148,13.1753333" id="Fill-4"></path>
                </g>
            </g>
        </g>
    </g>
</svg>