<?xml version="1.0" encoding="utf-8"?>
<!-- Generator: Adobe Illustrator 21.1.0, SVG Export Plug-In . SVG Version: 6.00 Build 0)  -->
<svg version="1.1" id="Layer_1" xmlns="http://www.w3.org/2000/svg" xmlns:xlink="http://www.w3.org/1999/xlink" x="0px" y="0px"
	 viewBox="0 0 52 52" style="enable-background:new 0 0 52 52;" xml:space="preserve">
<style type="text/css">
	.st0{fill:#747474;}
</style>
<title>dashSelected</title>
<desc>Created with Sketch.</desc>
<g id="Page-1_1_">
	<g id="main_1_" transform="translate(-44.000000, -128.000000)">
		<g id="dash_1_" transform="translate(44.000000, 128.000000)">
			<path id="Fill-1_1_" class="st0" d="M32.9,32.9c1.8-1.8,2.9-4.3,2.9-7c0-2.7-1.1-5.2-2.9-7c3.3,1.4,6.1,3.8,8,7
				C39,29.1,36.2,31.5,32.9,32.9L32.9,32.9z M10.7,26c1.9-3.1,4.7-5.5,8-7c-1.8,1.8-2.9,4.3-2.9,7c0,2.7,1.1,5.2,2.9,7
				C15.5,31.5,12.6,29.1,10.7,26L10.7,26z M34.3,26c0,4.7-3.8,8.5-8.5,8.5c-4.7,0-8.5-3.8-8.5-8.5s3.8-8.5,8.5-8.5
				C30.5,17.5,34.3,21.3,34.3,26L34.3,26z M42.4,25.6C39,19.7,32.7,16,25.8,16c-6.8,0-13.2,3.7-16.6,9.6L9,26l0.2,0.4
				c3.4,5.9,9.8,9.6,16.6,9.6c6.8,0,13.2-3.7,16.6-9.6l0.2-0.4L42.4,25.6z"/>
			<path id="Fill-4_1_" class="st0" d="M26,29.2c1.8,0,3.3-1.5,3.3-3.3c0-1.8-1.5-3.3-3.3-3.3c-1.8,0-3.3,1.5-3.3,3.3
				C22.7,27.7,24.2,29.2,26,29.2"/>
		</g>
	</g>
</g>
</svg>
