<?xml version="1.0" encoding="utf-8"?>
<!-- Generator: Adobe Illustrator 21.1.0, SVG Export Plug-In . SVG Version: 6.00 Build 0)  -->
<svg version="1.1" id="Layer_1" xmlns="http://www.w3.org/2000/svg" xmlns:xlink="http://www.w3.org/1999/xlink" x="0px" y="0px"
	 viewBox="0 0 52 52" style="enable-background:new 0 0 52 52;" xml:space="preserve">
<style type="text/css">
	.st0{fill:#FFFFFF;}
</style>
<title>redeemSelected</title>
<desc>Created with Sketch.</desc>
<g id="Page-1">
	<g id="main" transform="translate(-35.000000, -304.000000)">
		<g id="redeemSelected" transform="translate(35.000000, 304.000000)">
			<g id="Group">
				<g id="cart" transform="translate(9.000000, 14.000000)">
					<path id="Fill-1" class="st0" d="M27.6,21.1H13.5c-1.9,0-3.5-1.3-4-3.1L5.8,3.6c-0.3-1-1.2-1.7-2.2-1.7H0V0h3.6
						c1.9,0,3.5,1.3,4,3.1l3.7,14.4c0.3,1,1.2,1.7,2.2,1.7h14.1V21.1z"/>
					<path id="Fill-4" class="st0" d="M12.9,17.3l-0.5-1.4l12.5-0.1c0.7,0,1.3-0.4,1.6-1.1L30,6.5c0.3-0.7,0.2-1.4-0.2-2
						C29.5,4,29,3.7,28.4,3.7l-19.1,0L8.6,1.8l19.8,0c1.6,0,3.1,1.1,3.5,2.9c0.2,0.9,0.1,1.8-0.3,2.7l-3.5,8
						c-0.6,1.3-1.9,2.2-3.2,2.2l-11.3,0.1C13.2,17.7,13,17.5,12.9,17.3"/>
					<path id="Fill-6" class="st0" d="M26.6,24.5c-0.7,0-1.2,0.6-1.2,1.2c0,0.7,0.6,1.2,1.2,1.2c0.7,0,1.2-0.6,1.2-1.2
						C27.8,25,27.2,24.5,26.6,24.5 M26.6,28.8c-1.7,0-3.1-1.4-3.1-3.1c0-1.7,1.4-3.1,3.1-3.1c1.7,0,3.1,1.4,3.1,3.1
						C29.6,27.4,28.3,28.8,26.6,28.8"/>
					<path id="Fill-9" class="st0" d="M13.3,24.5c-0.7,0-1.2,0.6-1.2,1.2c0,0.7,0.6,1.2,1.2,1.2c0.7,0,1.2-0.6,1.2-1.2
						C14.5,25,14,24.5,13.3,24.5 M13.3,28.8c-1.7,0-3.1-1.4-3.1-3.1c0-1.7,1.4-3.1,3.1-3.1c1.7,0,3.1,1.4,3.1,3.1
						C16.4,27.4,15,28.8,13.3,28.8"/>
				</g>
			</g>
		</g>
	</g>
</g>
<g id="Page-1_1_">
	<g id="main_1_" transform="translate(-44.000000, -318.000000)">
		<g id="iconsSelected" transform="translate(35.000000, 112.000000)">
			<g id="redeemSelected_1_" transform="translate(0.000000, 192.000000)">
				<g id="Group_1_">
					<g id="cart_1_" transform="translate(9.000000, 14.000000)">
						<path id="Fill-1_1_" class="st0" d="M36.6,35.1H22.5c-1.9,0-3.5-1.3-4-3.1l-3.7-14.4c-0.3-1-1.2-1.7-2.2-1.7H9V14h3.6
							c1.9,0,3.5,1.3,4,3.1l3.7,14.4c0.3,1,1.2,1.7,2.2,1.7h14.1V35.1z"/>
						<path id="Fill-4_1_" class="st0" d="M21.9,31.3l-0.5-1.4l12.5-0.1c0.7,0,1.3-0.4,1.6-1.1l3.6-8.2c0.3-0.7,0.2-1.4-0.2-2
							c-0.3-0.5-0.9-0.8-1.4-0.8l-19.1,0l-0.7-1.9l19.8,0c1.6,0,3.1,1.1,3.5,2.9c0.2,0.9,0.1,1.8-0.3,2.7l-3.5,8
							c-0.6,1.3-1.9,2.2-3.2,2.2l-11.3,0.1C22.2,31.7,22,31.5,21.9,31.3"/>
						<path id="Fill-6_1_" class="st0" d="M35.6,38.5c-0.7,0-1.2,0.6-1.2,1.2c0,0.7,0.6,1.2,1.2,1.2c0.7,0,1.2-0.6,1.2-1.2
							C36.8,39,36.2,38.5,35.6,38.5 M35.6,42.8c-1.7,0-3.1-1.4-3.1-3.1c0-1.7,1.4-3.1,3.1-3.1c1.7,0,3.1,1.4,3.1,3.1
							C38.6,41.4,37.3,42.8,35.6,42.8"/>
						<path id="Fill-9_1_" class="st0" d="M22.3,38.5c-0.7,0-1.2,0.6-1.2,1.2c0,0.7,0.6,1.2,1.2,1.2c0.7,0,1.2-0.6,1.2-1.2
							C23.5,39,23,38.5,22.3,38.5 M22.3,42.8c-1.7,0-3.1-1.4-3.1-3.1c0-1.7,1.4-3.1,3.1-3.1c1.7,0,3.1,1.4,3.1,3.1
							C25.4,41.4,24,42.8,22.3,42.8"/>
					</g>
				</g>
			</g>
		</g>
	</g>
</g>
</svg>
