<?xml version="1.0" encoding="UTF-8"?>
<svg width="52px" height="52px" viewBox="0 0 52 52" version="1.1" xmlns="http://www.w3.org/2000/svg" xmlns:xlink="http://www.w3.org/1999/xlink">
    <!-- Generator: Sketch 47.1 (45422) - http://www.bohemiancoding.com/sketch -->
    <title>redeemSelected</title>
    <desc>Created with Sketch.</desc>
    <defs></defs>
    <g id="Page-1" stroke="none" stroke-width="1" fill="none" fill-rule="evenodd">
        <g id="main" transform="translate(-35.000000, -304.000000)">
            <g id="redeemSelected" transform="translate(35.000000, 304.000000)">
                <g id="Group">
                    <circle id="Oval-2-Copy-2" fill="#A3E8C0" cx="26" cy="26" r="26"></circle>
                    <g id="cart" transform="translate(9.000000, 14.000000)" fill="#FFFFFF">
                        <path d="M27.6054951,21.1046097 L13.5233352,21.1046097 C11.6507125,21.1046097 10.0085806,19.8258032 9.53186255,17.9950613 L5.78198878,3.58580323 C5.51817391,2.57641613 4.61287237,1.87106129 3.57982889,1.87106129 L0.00027769986,1.87106129 L0.00027769986,9.35483871e-05 L3.57982889,9.35483871e-05 C5.45245161,9.35483871e-05 7.09458345,1.2789 7.57130154,3.10964194 L11.3211753,17.5189 C11.5840645,18.5282871 12.4902917,19.2336419 13.5233352,19.2336419 L27.6054951,19.2336419 L27.6054951,21.1046097 Z" id="Fill-1"></path>
                        <path d="M12.873425,17.2535032 L12.3476466,15.8521484 L24.8376606,15.7586 C25.5087686,15.7529871 26.1095259,15.3320194 26.4029621,14.658471 L29.9686283,6.50666452 C30.2555849,5.85089032 30.1981935,5.10437419 29.8158934,4.51034194 C29.4817279,3.99301935 28.9624292,3.69553548 28.3903675,3.69553548 L9.25869846,3.69272903 L8.59592146,1.82176129 L28.3903675,1.82456774 C29.9936213,1.82456774 31.4533969,2.94995484 31.8893857,4.71053548 C32.1096942,5.60111613 31.9763983,6.54501935 31.6089088,7.38414839 L28.0969313,15.4143419 C27.5128359,16.7492774 26.2391192,17.6192774 24.8515456,17.6295677 L13.5463843,17.7193742 C13.2473941,17.7212452 12.9789509,17.5360194 12.873425,17.2535032" id="Fill-4"></path>
                        <path d="M26.5577335,24.4615 C25.8764432,24.4615 25.3219691,25.0218548 25.3219691,25.7094355 C25.3219691,26.3979516 25.8764432,26.9583065 26.5577335,26.9583065 C27.2380982,26.9583065 27.7925722,26.3979516 27.7925722,25.7094355 C27.7925722,25.0218548 27.2380982,24.4615 26.5577335,24.4615 M26.5577335,28.8292742 C24.8554334,28.8292742 23.4706367,27.4297903 23.4706367,25.7094355 C23.4706367,23.9900161 24.8554334,22.5905323 26.5577335,22.5905323 C28.259108,22.5905323 29.6439046,23.9900161 29.6439046,25.7094355 C29.6439046,27.4297903 28.259108,28.8292742 26.5577335,28.8292742" id="Fill-6"></path>
                        <path d="M13.3001571,24.4615 C12.6197924,24.4615 12.0653184,25.0218548 12.0653184,25.7094355 C12.0653184,26.3979516 12.6197924,26.9583065 13.3001571,26.9583065 C13.9814474,26.9583065 14.5359215,26.3979516 14.5359215,25.7094355 C14.5359215,25.0218548 13.9814474,24.4615 13.3001571,24.4615 M13.3001571,28.8292742 C11.5987826,28.8292742 10.213986,27.4297903 10.213986,25.7094355 C10.213986,23.9900161 11.5987826,22.5905323 13.3001571,22.5905323 C15.0024572,22.5905323 16.3872539,23.9900161 16.3872539,25.7094355 C16.3872539,27.4297903 15.0024572,28.8292742 13.3001571,28.8292742" id="Fill-9"></path>
                    </g>
                </g>
            </g>
        </g>
    </g>
</svg>