<?xml version="1.0" encoding="UTF-8"?>
<svg width="52px" height="52px" viewBox="0 0 52 52" version="1.1" xmlns="http://www.w3.org/2000/svg" xmlns:xlink="http://www.w3.org/1999/xlink">
    <!-- Generator: Sketch 47.1 (45422) - http://www.bohemiancoding.com/sketch -->
    <title>snapSelected</title>
    <desc>Created with Sketch.</desc>
    <defs></defs>
    <g id="Page-1" stroke="none" stroke-width="1" fill="none" fill-rule="evenodd">
        <g id="main" transform="translate(-35.000000, -368.000000)">
            <g id="snapSelected" transform="translate(35.000000, 368.000000)">
                <circle id="Oval-2-Copy-3" fill="#BCCA5C" cx="26" cy="26" r="26"></circle>
                <g id="snap" transform="translate(11.000000, 14.000000)" fill="#FFFFFF">
                    <path d="M14.5171048,8.04961667 C12.0965333,8.04961667 10.1277714,10.0306833 10.1277714,12.4663833 C10.1277714,14.9020833 12.0965333,16.88315 14.5171048,16.88315 C16.9376762,16.88315 18.9072,14.9020833 18.9072,12.4663833 C18.9072,10.0306833 16.9376762,8.04961667 14.5171048,8.04961667 Z M14.5171048,18.4164833 C11.2569143,18.4164833 8.6039619,15.7477167 8.6039619,12.4663833 C8.6039619,9.18505 11.2569143,6.51628333 14.5171048,6.51628333 C17.7780571,6.51628333 20.4310095,9.18505 20.4310095,12.4663833 C20.4310095,15.7477167 17.7780571,18.4164833 14.5171048,18.4164833 Z" id="Fill-1"></path>
                    <path d="M3.72647619,3.6064 C2.512,3.6064 1.52380952,4.6 1.52380952,5.82206667 L1.52380952,19.1137667 C1.52380952,20.3358333 2.512,21.3294333 3.72647619,21.3294333 L25.3104762,21.3294333 C26.5249524,21.3294333 27.5131429,20.3358333 27.5131429,19.1137667 L27.5131429,5.82206667 C27.5131429,4.6 26.5249524,3.6064 25.3104762,3.6064 L19.7158095,3.6064 L18.4777143,1.6836 C18.4182857,1.59083333 18.3169524,1.53333333 18.2133333,1.53333333 L10.8228571,1.53333333 C10.7192381,1.53333333 10.6179048,1.59083333 10.56,1.68206667 L9.32114286,3.6064 L3.72647619,3.6064 Z M25.3104762,22.8627667 L3.72647619,22.8627667 C1.67238095,22.8627667 0,21.1807 0,19.1137667 L0,5.82206667 C0,3.75513333 1.67238095,2.07306667 3.72647619,2.07306667 L8.49219048,2.07306667 L9.28,0.849466667 C9.61980952,0.318166667 10.1973333,0 10.8228571,0 L18.2133333,0 C18.8388571,0 19.416381,0.318166667 19.7577143,0.851 L20.5447619,2.07306667 L25.3104762,2.07306667 C27.3645714,2.07306667 29.0369524,3.75513333 29.0369524,5.82206667 L29.0369524,19.1137667 C29.0369524,21.1807 27.3645714,22.8627667 25.3104762,22.8627667 L25.3104762,22.8627667 Z" id="Fill-3"></path>
                    <polygon id="Fill-6" points="4.16152381 8.24458 6.16533333 8.24458 6.16533333 6.22824667 4.16152381 6.22824667"></polygon>
                </g>
            </g>
        </g>
    </g>
</svg>