<?xml version="1.0" encoding="utf-8"?>
<!-- Generator: Adobe Illustrator 21.1.0, SVG Export Plug-In . SVG Version: 6.00 Build 0)  -->
<svg version="1.1" id="Layer_1" xmlns="http://www.w3.org/2000/svg" xmlns:xlink="http://www.w3.org/1999/xlink" x="0px" y="0px"
	 viewBox="0 0 52 52" style="enable-background:new 0 0 52 52;" xml:space="preserve">
<style type="text/css">
	.st0{fill:#FFFFFF;}
</style>
<title>snapSelected</title>
<desc>Created with Sketch.</desc>
<g id="Page-1">
	<g id="main" transform="translate(-35.000000, -368.000000)">
		<g id="snapSelected" transform="translate(35.000000, 368.000000)">
			<g id="snap" transform="translate(11.000000, 14.000000)">
				<path id="Fill-1" class="st0" d="M14.5,8c-2.4,0-4.4,2-4.4,4.4s2,4.4,4.4,4.4s4.4-2,4.4-4.4S16.9,8,14.5,8z M14.5,18.4
					c-3.3,0-5.9-2.7-5.9-6s2.7-6,5.9-6c3.3,0,5.9,2.7,5.9,6S17.8,18.4,14.5,18.4z"/>
				<path id="Fill-3" class="st0" d="M3.7,3.6c-1.2,0-2.2,1-2.2,2.2v13.3c0,1.2,1,2.2,2.2,2.2h21.6c1.2,0,2.2-1,2.2-2.2V5.8
					c0-1.2-1-2.2-2.2-2.2h-5.6l-1.2-1.9c-0.1-0.1-0.2-0.2-0.3-0.2h-7.4c-0.1,0-0.2,0.1-0.3,0.1L9.3,3.6H3.7z M25.3,22.9H3.7
					c-2.1,0-3.7-1.7-3.7-3.7V5.8c0-2.1,1.7-3.7,3.7-3.7h4.8l0.8-1.2C9.6,0.3,10.2,0,10.8,0h7.4c0.6,0,1.2,0.3,1.5,0.9l0.8,1.2h4.8
					c2.1,0,3.7,1.7,3.7,3.7v13.3C29,21.2,27.4,22.9,25.3,22.9L25.3,22.9z"/>
				<polygon id="Fill-6" class="st0" points="4.2,8.2 6.2,8.2 6.2,6.2 4.2,6.2 				"/>
			</g>
		</g>
	</g>
</g>
<g id="Page-1_1_">
	<g id="main_1_" transform="translate(-46.000000, -382.000000)">
		<g id="iconsSelected" transform="translate(35.000000, 112.000000)">
			<g id="snapSelected_1_" transform="translate(0.000000, 256.000000)">
				<g id="snap_1_" transform="translate(11.000000, 14.000000)">
					<path id="Fill-1_1_" class="st0" d="M25.5,22c-2.4,0-4.4,2-4.4,4.4s2,4.4,4.4,4.4s4.4-2,4.4-4.4S27.9,22,25.5,22z M25.5,32.4
						c-3.3,0-5.9-2.7-5.9-6s2.7-6,5.9-6c3.3,0,5.9,2.7,5.9,6S28.8,32.4,25.5,32.4z"/>
					<path id="Fill-3_1_" class="st0" d="M14.7,17.6c-1.2,0-2.2,1-2.2,2.2v13.3c0,1.2,1,2.2,2.2,2.2h21.6c1.2,0,2.2-1,2.2-2.2V19.8
						c0-1.2-1-2.2-2.2-2.2h-5.6l-1.2-1.9c-0.1-0.1-0.2-0.2-0.3-0.2h-7.4c-0.1,0-0.2,0.1-0.3,0.1l-1.2,1.9H14.7z M36.3,36.9H14.7
						c-2.1,0-3.7-1.7-3.7-3.7V19.8c0-2.1,1.7-3.7,3.7-3.7h4.8l0.8-1.2c0.3-0.5,0.9-0.8,1.5-0.8h7.4c0.6,0,1.2,0.3,1.5,0.9l0.8,1.2
						h4.8c2.1,0,3.7,1.7,3.7,3.7v13.3C40,35.2,38.4,36.9,36.3,36.9L36.3,36.9z"/>
					<polygon id="Fill-6_1_" class="st0" points="15.2,22.2 17.2,22.2 17.2,20.2 15.2,20.2 					"/>
				</g>
			</g>
		</g>
	</g>
</g>
</svg>
