<?xml version="1.0" encoding="utf-8"?>
<!-- Generator: Adobe Illustrator 21.1.0, SVG Export Plug-In . SVG Version: 6.00 Build 0)  -->
<svg version="1.1" id="Layer_1" xmlns="http://www.w3.org/2000/svg" xmlns:xlink="http://www.w3.org/1999/xlink" x="0px" y="0px"
	 viewBox="0 0 52 52" style="enable-background:new 0 0 52 52;" xml:space="preserve">
<style type="text/css">
	.st0{fill:#FFFFFF;}
</style>
<title>snipSelected</title>
<desc>Created with Sketch.</desc>
<g id="Page-1">
	<g id="main" transform="translate(-35.000000, -240.000000)">
		<g id="snipSelected" transform="translate(35.000000, 240.000000)">
			<g id="scissors" transform="translate(12.000000, 11.000000)">
				<path id="Fill-1" class="st0" d="M13.4,26.5c-1.5,0-2.7-1.2-2.7-2.7c0-1.5,1.2-2.7,2.7-2.7s2.7,1.2,2.7,2.7
					C16.1,25.3,14.9,26.5,13.4,26.5 M13.6,19.5L18.9,0l-0.5,0.3c-1,0.5-1.7,1.4-2,2.5l-4.7,17.1c-1.6,0.6-2.7,2.2-2.7,4
					c0,2.4,1.9,4.4,4.3,4.4s4.3-2,4.3-4.4C17.7,21.5,15.9,19.6,13.6,19.5"/>
				<path id="Fill-3" class="st0" d="M4.3,17.4c-1.5,0-2.7-1.2-2.7-2.7c0-1.5,1.2-2.7,2.7-2.7S7,13.2,7,14.7
					C7,16.2,5.8,17.4,4.3,17.4 M4.3,10.4c-2.4,0-4.3,2-4.3,4.4s1.9,4.4,4.3,4.4c1.8,0,3.3-1.1,4-2.7l3.6-1.1l0.5-1.9l-3.8,1.1
					C8.6,12.2,6.7,10.4,4.3,10.4"/>
				<path id="Fill-6" class="st0" d="M16.7,12.2l-0.6,1.9l9.1-2.6c1.1-0.3,2-1.1,2.5-2.2L27.9,9L16.7,12.2z"/>
			</g>
		</g>
	</g>
</g>
<g id="Page-1_1_">
	<g id="main_1_" transform="translate(-47.000000, -251.000000)">
		<g id="iconsSelected" transform="translate(35.000000, 112.000000)">
			<g id="snipSelected_1_" transform="translate(0.000000, 128.000000)">
				<g id="scissors_1_" transform="translate(12.000000, 11.000000)">
					<path id="Fill-1_1_" class="st0" d="M25.4,37.5c-1.5,0-2.7-1.2-2.7-2.7c0-1.5,1.2-2.7,2.7-2.7s2.7,1.2,2.7,2.7
						C28.1,36.3,26.9,37.5,25.4,37.5 M25.6,30.5L30.9,11l-0.5,0.3c-1,0.5-1.7,1.4-2,2.5l-4.7,17.1c-1.6,0.6-2.7,2.2-2.7,4
						c0,2.4,1.9,4.4,4.3,4.4s4.3-2,4.3-4.4C29.7,32.5,27.9,30.6,25.6,30.5"/>
					<path id="Fill-3_1_" class="st0" d="M16.3,28.4c-1.5,0-2.7-1.2-2.7-2.7c0-1.5,1.2-2.7,2.7-2.7s2.7,1.2,2.7,2.7
						C19,27.2,17.8,28.4,16.3,28.4 M16.3,21.4c-2.4,0-4.3,2-4.3,4.4s1.9,4.4,4.3,4.4c1.8,0,3.3-1.1,4-2.7l3.6-1.1l0.5-1.9l-3.8,1.1
						C20.6,23.2,18.7,21.4,16.3,21.4"/>
					<path id="Fill-6_1_" class="st0" d="M28.7,23.2l-0.6,1.9l9.1-2.6c1.1-0.3,2-1.1,2.5-2.2l0.1-0.3L28.7,23.2z"/>
				</g>
			</g>
		</g>
	</g>
</g>
</svg>
