<?xml version="1.0" encoding="UTF-8"?>
<svg width="52px" height="52px" viewBox="0 0 52 52" version="1.1" xmlns="http://www.w3.org/2000/svg" xmlns:xlink="http://www.w3.org/1999/xlink">
    <!-- Generator: Sketch 47.1 (45422) - http://www.bohemiancoding.com/sketch -->
    <title>snipSelected</title>
    <desc>Created with Sketch.</desc>
    <defs></defs>
    <g id="Page-1" stroke="none" stroke-width="1" fill="none" fill-rule="evenodd">
        <g id="main" transform="translate(-35.000000, -240.000000)">
            <g id="snipSelected" transform="translate(35.000000, 240.000000)">
                <circle id="Oval-2-Copy" fill="#7CC274" cx="26" cy="26" r="26"></circle>
                <g id="scissors" transform="translate(12.000000, 11.000000)" fill="#FFFFFF">
                    <path d="M13.3904235,26.53732 C11.9130118,26.53732 10.7106588,25.3284343 10.7106588,23.8411486 C10.7106588,22.3546914 11.9130118,21.1449771 13.3904235,21.1449771 C14.8678353,21.1449771 16.0701882,22.3546914 16.0701882,23.8411486 C16.0701882,25.3284343 14.8678353,26.53732 13.3904235,26.53732 M13.5724235,19.5068914 L18.9039529,-0.000165714286 L18.4296,0.253377143 C17.4561882,0.774548571 16.7380706,1.67603429 16.4457176,2.74572 L11.7820706,19.8068343 C10.1918353,20.4514629 9.0636,22.01332 9.0636,23.8411486 C9.0636,26.24152 11.0046588,28.1944629 13.3904235,28.1944629 C15.7761882,28.1944629 17.7172471,26.24152 17.7172471,23.8411486 C17.7172471,21.5037486 15.8725412,19.6046629 13.5724235,19.5068914" id="Fill-1"></path>
                    <path d="M4.32674118,17.4178143 C2.84932941,17.4178143 1.64697647,16.2089286 1.64697647,14.7216429 C1.64697647,13.2351857 2.84932941,12.0254714 4.32674118,12.0254714 C5.80415294,12.0254714 7.00568235,13.2351857 7.00568235,14.7216429 C7.00568235,16.2089286 5.80415294,17.4178143 4.32674118,17.4178143 M4.32674118,10.3683286 C1.94097647,10.3683286 -8.23529412e-05,12.3212714 -8.23529412e-05,14.7216429 C-8.23529412e-05,17.1220143 1.94097647,19.0749571 4.32674118,19.0749571 C6.11956471,19.0749571 7.65956471,17.9713 8.31509412,16.4053 L11.9361529,15.3356143 L12.4385059,13.4630429 L8.63874118,14.5832714 C8.56462353,12.2483571 6.66474118,10.3683286 4.32674118,10.3683286" id="Fill-3"></path>
                    <path d="M16.7432588,12.2181971 L16.1634941,14.1139686 L25.2165529,11.46834 C26.3340824,11.1418829 27.2547882,10.3439686 27.7406706,9.28091143 L27.8864353,8.96191143 L16.7432588,12.2181971 Z" id="Fill-6"></path>
                </g>
            </g>
        </g>
    </g>
</svg>