<?xml version="1.0" encoding="UTF-8"?>
<svg width="32px" height="44px" viewBox="0 0 32 44" version="1.1" xmlns="http://www.w3.org/2000/svg" xmlns:xlink="http://www.w3.org/1999/xlink">
    <!-- Generator: Sketch 47.1 (45422) - http://www.bohemiancoding.com/sketch -->
    <title>logo</title>
    <desc>Created with Sketch.</desc>
    <defs>
        <polygon id="path-1" points="0.072665469 44 22.2945041 44 22.2945041 4.14117647e-05 0.072665469 4.14117647e-05"></polygon>
        <polygon id="path-3" points="0 0.0116248036 0 8.17739909 11.1129162 8.17739909 11.1129162 0.0116248036 2.86046304e-21 0.0116248036"></polygon>
    </defs>
    <g id="Page-1" stroke="none" stroke-width="1" fill="none" fill-rule="evenodd">
        <g id="main" transform="translate(-45.000000, -20.000000)">
            <g id="logo" transform="translate(45.000000, 20.000000)">
                <g>
                    <g id="Group-3" transform="translate(8.949153, 0.000000)">
                        <mask id="mask-2" fill="white">
                            <use xlink:href="#path-1"></use>
                        </mask>
                        <g id="Clip-2"></g>
                        <path d="M13.4839191,4.14117647e-05 L0.072665469,44.0000414 L3.14300836,44.0000414 L5.44401281,36.4509873 C13.6048564,36.3150532 18.7949524,32.4916085 19.3475729,26.1477402 C19.9086477,19.7085214 15.2065278,18.6097638 11.77327,17.8076179 C11.4970629,17.7431191 11.4001481,17.7224132 11.1703363,17.6639191 L12.1241222,14.5347426 C14.8599028,14.5674579 17.5907347,15.3143191 19.1977674,16.0754673 L22.2945041,8.92800376 C19.7922468,8.12088847 16.8645955,7.60769318 14.2760428,7.47486494 L16.554262,4.14117647e-05 L13.4839191,4.14117647e-05 Z" id="Fill-1" fill="#202089" mask="url(#mask-2)"></path>
                    </g>
                    <path d="M11.2639132,25.8989637 C11.5560417,25.9670973 11.8358077,26.0337701 12.1008218,26.1016949 L17.8983051,7.45762712 C9.79454424,7.57469576 4.32212149,11.3608542 3.77422473,17.6503199 C3.21926369,24.0188748 7.86901022,25.1055681 11.2639132,25.8989637" id="Fill-4" fill="#A3E8C0"></path>
                    <g id="Group-8" transform="translate(0.000000, 27.593220)">
                        <mask id="mask-4" fill="white">
                            <use xlink:href="#path-3"></use>
                        </mask>
                        <g id="Clip-7"></g>
                        <path d="M11.1129162,1.47612997 C8.33435209,1.46012336 4.07959994,0.741526416 2.44732939,0.0116248036 L-7.38727215e-05,6.78952559 C2.5666866,7.57104853 6.26908187,8.06435238 8.90908187,8.17739909 L11.1129162,1.47612997 Z" id="Fill-6" fill="#A3E8C0" mask="url(#mask-4)"></path>
                    </g>
                </g>
            </g>
        </g>
    </g>
</svg>