<?xml version="1.0" encoding="UTF-8"?>
<svg width="94px" height="18px" viewBox="0 0 94 18" version="1.1" xmlns="http://www.w3.org/2000/svg" xmlns:xlink="http://www.w3.org/1999/xlink">
    <!-- Generator: Sketch 47.1 (45422) - http://www.bohemiancoding.com/sketch -->
    <title>snipsnap</title>
    <desc>Created with Sketch.</desc>
    <defs>
        <polygon id="path-1" points="32.9741566 14 0.152531604 14 0.152531604 0.130854348 32.9741566 0.130854348"></polygon>
        <polygon id="path-3" points="38.9999259 14 0.0688797665 14 0.0688797665 0.130854348 38.9999259 0.130854348 38.9999259 14"></polygon>
    </defs>
    <g id="Page-1" stroke="none" stroke-width="1" fill="none" fill-rule="evenodd">
        <g id="main" transform="translate(-116.000000, -33.000000)">
            <g id="snipsnap" transform="translate(116.000000, 33.000000)">
                <path d="M7.3925761,4.18372549 C8.63711952,4.18372549 9.89101707,4.52784314 10.6221232,4.87615917 L12,1.67773933 C10.7066073,1.25820069 9.14328137,1 7.87557535,1 C4.42004454,1 1.92976986,2.94700115 1.67884187,5.84478662 C1.437268,8.63191465 3.49027468,9.09298731 4.9891611,9.42975779 C5.77164068,9.6054902 6.38960653,9.74418685 6.34669636,10.2391465 C6.29339272,10.8545098 5.2393467,10.8545098 4.89294729,10.8545098 C3.6731997,10.8545098 2.52293987,10.5378316 1.38292502,9.88753172 L0,13.1111419 C1.26310319,13.6851211 2.81677803,14 4.39510022,14 C8.14209354,14 10.5287305,12.2741638 10.7792131,9.38342561 C11.0288048,6.50183391 8.93645137,6.01017301 7.40890869,5.65136101 C6.60489978,5.46228374 5.96985895,5.31309112 6.01440238,4.79863899 C6.06770601,4.18372549 7.03028953,4.18372549 7.3925761,4.18372549" id="Fill-1" fill="#202089"></path>
                <g id="Group-5" transform="translate(11.000000, 4.000000)">
                    <mask id="mask-2" fill="white">
                        <use xlink:href="#path-1"></use>
                    </mask>
                    <g id="Clip-4"></g>
                    <path d="M26.5475505,7.19689783 C25.7532156,7.19689783 25.2582156,6.52733261 25.3439844,5.5689413 C25.4510788,4.37331087 26.3646495,3.40046304 27.3806448,3.40046304 C28.1754467,3.40046304 28.6704467,4.07002826 28.5846778,5.02826739 C28.4775835,6.22389783 27.5637014,7.19689783 26.5475505,7.19689783 M30.0430599,0.130854348 C28.9212156,0.130854348 27.6570976,0.513723913 26.6793948,1.48352826 L26.4225552,1.73841957 L26.7466401,0.381484783 L22.5185929,0.381484783 L21.4723995,4.85889783 C21.3175175,5.42118043 20.9903193,6.86607174 19.6001165,6.86607174 C18.489791,6.86607174 18.7947297,5.7159413 18.8808099,5.29868043 L20.0336307,0.381484783 L15.6071165,0.381484783 L14.5553193,4.90774565 C14.4080646,5.44233261 13.9602297,6.88691957 12.8103665,6.88691957 C12.5340693,6.88691957 12.3313995,6.80946304 12.2076495,6.65637609 C12.0747156,6.49202826 12.0429608,6.24991957 12.1136307,5.93355 L12.7099656,3.4584413 C12.9334939,2.50902826 12.7907533,1.65259348 12.3074278,1.0469413 C11.8360882,0.456202174 11.0556071,0.130854348 10.109192,0.130854348 C8.92212594,0.130854348 7.78705047,0.548571739 6.82709292,1.33896304 L6.42377689,1.67100652 L6.7164184,0.381484783 L2.44634292,0.381484783 L0.152531604,10.2542239 L3.73567783,10.2542239 C4.21713538,10.2542239 4.6629467,9.90270217 4.77222028,9.4364413 L5.9169467,4.55805 C6.0654467,3.9414413 6.62239953,3.45828913 7.18480047,3.45828913 C7.46888066,3.45828913 8.41171557,3.66828913 8.1055316,4.8759413 L7.72696557,6.47681087 C7.18355519,8.8636587 8.2929467,10.505463 10.1968288,10.505463 C12.7456118,10.505463 13.730942,8.92924565 13.9905835,8.47820217 C13.9905835,8.47820217 14.3042392,10.505463 16.658291,10.505463 C19.2684042,10.505463 20.6492675,8.38781087 20.6492675,8.38781087 L19.3370505,14.000137 L22.9475929,14.000137 C23.4130175,14.000137 23.8441967,13.6600283 23.9500458,13.2094413 L24.8812061,9.24774565 L25.115008,9.62163696 C25.4001778,10.1257891 26.4044986,10.505463 27.3966778,10.505463 C30.205725,10.505463 32.6436778,7.85352826 32.9464373,4.46826739 C33.0553995,3.25178913 32.8408995,2.15248478 32.3421637,1.37305 C31.822258,0.560441304 31.0271448,0.130854348 30.0430599,0.130854348" id="Fill-3" fill="#202089" mask="url(#mask-2)"></path>
                </g>
                <path d="M50.8661477,5.65130737 C50.0126601,5.46238221 49.3384143,5.31319131 49.3855501,4.79859517 C49.4423021,4.18368877 50.4641541,4.18368877 50.8489644,4.18368877 C52.1701834,4.18368877 53.5014916,4.52780245 54.2780486,4.8762644 L56,1.67788145 C54.6266007,1.25819771 52.9669189,1 51.6207921,1 C47.9520882,1 45.0489062,2.9469787 44.7823293,5.84473074 C44.5259992,8.63182662 46.7055927,9.09304391 48.2971721,9.42966056 C49.1278012,9.60539094 49.7837602,9.744086 49.7382009,10.2390399 C49.6816065,10.8543961 48.5628032,10.8543961 48.1950184,10.8543961 C46.8999685,10.8543961 45.6786962,10.5377216 44.4683013,9.88742921 L43,13.1110022 C44.3410822,13.6849748 45.9906747,14 47.666121,14 C51.6444388,14 54.1785749,12.2740337 54.4445212,9.38332891 C54.7095217,6.50192039 52.4881524,6.01026516 50.8661477,5.65130737" id="Fill-6" fill="#202089"></path>
                <g id="Group-10" transform="translate(55.000000, 4.000000)">
                    <mask id="mask-4" fill="white">
                        <use xlink:href="#path-3"></use>
                    </mask>
                    <g id="Clip-9"></g>
                    <path d="M32.7344907,7.19689783 C31.9599537,7.19689783 31.4770821,6.52733261 31.5608486,5.5689413 C31.6651016,4.37331087 32.5561833,3.40046304 33.5469654,3.40046304 C34.3216541,3.40046304 34.8042222,4.07002826 34.7206074,5.02826739 C34.6162027,6.22389783 33.7252728,7.19689783 32.7344907,7.19689783 M19.3174284,7.19689783 C18.5430432,7.19689783 18.0604751,6.52733261 18.1442416,5.5689413 C18.2483428,4.37331087 19.139121,3.40046304 20.1295996,3.40046304 C20.8919965,3.40046304 21.3857942,4.0849413 21.3035451,5.02826739 C21.2009615,6.20381087 20.2913661,7.19689783 19.3174284,7.19689783 M36.1428175,0.130854348 C35.048693,0.130854348 33.9211833,0.664984783 32.9683389,1.63509348 L32.5320549,2.07913696 L32.9284284,0.381484783 L28.8061132,0.381484783 L27.7787591,4.85889783 C27.6094051,5.44050652 27.2421677,6.86607174 25.9717086,6.86607174 C25.3237319,6.86607174 24.9637786,6.23363696 25.0865451,5.59435435 L26.2891716,0.381484783 L21.9943156,0.381484783 L21.7078097,1.67587609 L21.4762377,1.31157174 C20.96423,0.505963043 20.2720938,0.130854348 19.2984595,0.130854348 C16.910051,0.130854348 14.7500276,2.3034413 14.0692728,5.06585435 C13.8170626,6.08983261 13.6220626,6.88691957 12.5009265,6.88691957 C12.0787553,6.88691957 11.6295724,6.47924565 11.76023,5.80328913 L12.311086,3.4584413 C12.5290004,2.50902826 12.389693,1.65259348 11.9185062,1.0469413 C11.459156,0.456202174 10.6981249,0.130854348 9.77547899,0.130854348 C8.61822607,0.130854348 7.51180973,0.548571739 6.57580973,1.33896304 L6.18262296,1.67100652 L6.46806654,0.381484783 L2.30523385,0.381484783 L0.0688797665,10.2542239 L3.56218716,10.2542239 C4.03140117,10.2542239 4.4661677,9.90270217 4.57269689,9.4364413 L5.68867354,4.55805 C5.83344397,3.9414413 6.37640895,3.45828913 6.92453346,3.45828913 C7.93322218,3.45828913 8.06919105,4.30087609 7.99619883,4.6099413 L7.57251012,6.87748478 C7.21999261,8.50833261 8.30789533,10.505463 10.435444,10.505463 C12.2127514,10.505463 13.9141833,9.09328913 14.1674556,8.64224565 C14.4389381,9.30755 15.4637125,10.505463 16.7373584,10.505463 C19.2468642,10.505463 20.7871366,8.34855 20.7871366,8.34855 C20.7871366,8.34855 20.813693,10.505463 23.3153078,10.505463 C25.7214712,10.505463 26.9136268,8.71985435 26.9136268,8.71985435 L25.7052339,14.000137 L29.1739576,14.000137 C29.6569809,14.000137 30.1040393,13.6384196 30.213907,13.1589196 L31.1770704,8.95374565 L31.4053039,9.32702826 C31.8903,10.1198543 32.5957903,10.505463 33.5622922,10.505463 C36.3012455,10.505463 38.678121,7.85352826 38.9734284,4.46826739 C39.1617514,2.30922391 38.359444,0.130854348 36.1428175,0.130854348" id="Fill-8" fill="#202089" mask="url(#mask-4)"></path>
                </g>
                <path d="M31.5661559,2.14800273 L32,0 L27.6060744,0 L27,3 L30.6279338,3 C31.0646662,3 31.4679557,2.63366337 31.5661559,2.14800273" id="Fill-11" fill="#202089"></path>
            </g>
        </g>
    </g>
</svg>